<svg width="85" height="56" viewBox="0 0 85 56" fill="none" xmlns="http://www.w3.org/2000/svg">
<path d="M33.2959 1.00098H27.7979C27.557 1.00098 27.3861 0.955404 27.2852 0.864258C27.181 0.773112 27.1289 0.652669 27.1289 0.50293C27.1289 0.35319 27.181 0.23112 27.2852 0.136719C27.3861 0.0455729 27.557 0 27.7979 0H33.2959C33.5335 0 33.7028 0.0455729 33.8037 0.136719C33.9079 0.23112 33.96 0.35319 33.96 0.50293C33.96 0.649414 33.9095 0.768229 33.8086 0.859375C33.7077 0.953776 33.5368 1.00098 33.2959 1.00098Z" fill="#232323"/>
<path d="M25.0244 3.6416V9.59863C25.0244 9.94043 25.0163 10.1439 25 10.209C24.974 10.3066 24.9154 10.3896 24.8242 10.458C24.7363 10.5264 24.637 10.5605 24.5264 10.5605C24.4124 10.5605 24.3099 10.5264 24.2188 10.458C24.1309 10.3896 24.0739 10.3034 24.0479 10.1992C24.0316 10.1406 24.0234 9.94043 24.0234 9.59863V3.6416C24.0234 3.2998 24.0316 3.09635 24.0479 3.03125C24.0739 2.93359 24.1309 2.85059 24.2188 2.78223C24.3099 2.71387 24.4124 2.67969 24.5264 2.67969C24.637 2.67969 24.7363 2.71387 24.8242 2.78223C24.9154 2.85059 24.974 2.93522 25 3.03613C25.0163 3.10124 25.0244 3.30306 25.0244 3.6416Z" fill="#232323"/>
<path d="M37.0361 3.6416V9.59863C37.0361 9.94043 37.028 10.1439 37.0117 10.209C36.9857 10.3066 36.9271 10.3896 36.8359 10.458C36.748 10.5264 36.6488 10.5605 36.5381 10.5605C36.4242 10.5605 36.3216 10.5264 36.2305 10.458C36.1426 10.3896 36.0856 10.3034 36.0596 10.1992C36.0433 10.1406 36.0352 9.94043 36.0352 9.59863V3.6416C36.0352 3.2998 36.0433 3.09635 36.0596 3.03125C36.0856 2.93359 36.1426 2.85059 36.2305 2.78223C36.3216 2.71387 36.4242 2.67969 36.5381 2.67969C36.6488 2.67969 36.748 2.71387 36.8359 2.78223C36.9271 2.85059 36.9857 2.93522 37.0117 3.03613C37.028 3.10124 37.0361 3.30306 37.0361 3.6416Z" fill="#232323"/>
<path d="M15.2783 23.001H9.78027C9.53939 23.001 9.36849 22.9554 9.26758 22.8643C9.16341 22.7731 9.11133 22.6527 9.11133 22.5029C9.11133 22.3532 9.16341 22.2311 9.26758 22.1367C9.36849 22.0456 9.53939 22 9.78027 22H15.2783C15.516 22 15.6852 22.0456 15.7861 22.1367C15.8903 22.2311 15.9424 22.3532 15.9424 22.5029C15.9424 22.6494 15.8919 22.7682 15.791 22.8594C15.6901 22.9538 15.5192 23.001 15.2783 23.001Z" fill="#232323"/>
<path d="M21.2842 23.001H15.7861C15.5452 23.001 15.3743 22.9554 15.2734 22.8643C15.1693 22.7731 15.1172 22.6527 15.1172 22.5029C15.1172 22.3532 15.1693 22.2311 15.2734 22.1367C15.3743 22.0456 15.5452 22 15.7861 22H21.2842C21.5218 22 21.6911 22.0456 21.792 22.1367C21.8962 22.2311 21.9482 22.3532 21.9482 22.5029C21.9482 22.6494 21.8978 22.7682 21.7969 22.8594C21.696 22.9538 21.5251 23.001 21.2842 23.001Z" fill="#232323"/>
<path d="M25.0244 14.6416V20.5986C25.0244 20.9404 25.0163 21.1439 25 21.209C24.974 21.3066 24.9154 21.3896 24.8242 21.458C24.7363 21.5264 24.637 21.5605 24.5264 21.5605C24.4124 21.5605 24.3099 21.5264 24.2188 21.458C24.1309 21.3896 24.0739 21.3034 24.0479 21.1992C24.0316 21.1406 24.0234 20.9404 24.0234 20.5986V14.6416C24.0234 14.2998 24.0316 14.0964 24.0479 14.0312C24.0739 13.9336 24.1309 13.8506 24.2188 13.7822C24.3099 13.7139 24.4124 13.6797 24.5264 13.6797C24.637 13.6797 24.7363 13.7139 24.8242 13.7822C24.9154 13.8506 24.974 13.9352 25 14.0361C25.0163 14.1012 25.0244 14.3031 25.0244 14.6416Z" fill="#232323"/>
<path d="M37.0361 14.6416V20.5986C37.0361 20.9404 37.028 21.1439 37.0117 21.209C36.9857 21.3066 36.9271 21.3896 36.8359 21.458C36.748 21.5264 36.6488 21.5605 36.5381 21.5605C36.4242 21.5605 36.3216 21.5264 36.2305 21.458C36.1426 21.3896 36.0856 21.3034 36.0596 21.1992C36.0433 21.1406 36.0352 20.9404 36.0352 20.5986V14.6416C36.0352 14.2998 36.0433 14.0964 36.0596 14.0312C36.0856 13.9336 36.1426 13.8506 36.2305 13.7822C36.3216 13.7139 36.4242 13.6797 36.5381 13.6797C36.6488 13.6797 36.748 13.7139 36.8359 13.7822C36.9271 13.8506 36.9857 13.9352 37.0117 14.0361C37.028 14.1012 37.0361 14.3031 37.0361 14.6416Z" fill="#232323"/>
<path d="M45.3076 23.001H39.8096C39.5687 23.001 39.3978 22.9554 39.2969 22.8643C39.1927 22.7731 39.1406 22.6527 39.1406 22.5029C39.1406 22.3532 39.1927 22.2311 39.2969 22.1367C39.3978 22.0456 39.5687 22 39.8096 22H45.3076C45.5452 22 45.7145 22.0456 45.8154 22.1367C45.9196 22.2311 45.9717 22.3532 45.9717 22.5029C45.9717 22.6494 45.9212 22.7682 45.8203 22.8594C45.7194 22.9538 45.5485 23.001 45.3076 23.001Z" fill="#232323"/>
<path d="M57.3193 23.001H51.8213C51.5804 23.001 51.4095 22.9554 51.3086 22.8643C51.2044 22.7731 51.1523 22.6527 51.1523 22.5029C51.1523 22.3532 51.2044 22.2311 51.3086 22.1367C51.4095 22.0456 51.5804 22 51.8213 22H57.3193C57.557 22 57.7262 22.0456 57.8271 22.1367C57.9313 22.2311 57.9834 22.3532 57.9834 22.5029C57.9834 22.6494 57.9329 22.7682 57.832 22.8594C57.7311 22.9538 57.5602 23.001 57.3193 23.001Z" fill="#232323"/>
<path d="M63.3252 23.001H57.8271C57.5863 23.001 57.4154 22.9554 57.3145 22.8643C57.2103 22.7731 57.1582 22.6527 57.1582 22.5029C57.1582 22.3532 57.2103 22.2311 57.3145 22.1367C57.4154 22.0456 57.5863 22 57.8271 22H63.3252C63.5628 22 63.7321 22.0456 63.833 22.1367C63.9372 22.2311 63.9893 22.3532 63.9893 22.5029C63.9893 22.6494 63.9388 22.7682 63.8379 22.8594C63.737 22.9538 63.5661 23.001 63.3252 23.001Z" fill="#232323"/>
<path d="M8.56445 24.7969L5.35645 31.7109C5.27507 31.8835 5.20182 31.9958 5.13672 32.0479C5.05208 32.1162 4.94954 32.1504 4.8291 32.1504C4.69238 32.1504 4.57357 32.1016 4.47266 32.0039C4.375 31.9062 4.32617 31.7956 4.32617 31.6719C4.32617 31.584 4.36523 31.4554 4.44336 31.2861L7.66113 24.377C7.74251 24.2044 7.81413 24.0921 7.87598 24.04C7.96387 23.9717 8.06641 23.9375 8.18359 23.9375C8.32031 23.9375 8.4375 23.9863 8.53516 24.084C8.63281 24.1784 8.68164 24.2874 8.68164 24.4111C8.68164 24.499 8.64258 24.6276 8.56445 24.7969Z" fill="#232323"/>
<path d="M21.2842 34.001H15.7861C15.5452 34.001 15.3743 33.9554 15.2734 33.8643C15.1693 33.7731 15.1172 33.6527 15.1172 33.5029C15.1172 33.3532 15.1693 33.2311 15.2734 33.1367C15.3743 33.0456 15.5452 33 15.7861 33H21.2842C21.5218 33 21.6911 33.0456 21.792 33.1367C21.8962 33.2311 21.9482 33.3532 21.9482 33.5029C21.9482 33.6494 21.8978 33.7682 21.7969 33.8594C21.696 33.9538 21.5251 34.001 21.2842 34.001Z" fill="#232323"/>
<path d="M24.1748 24.4551L25.2734 25.3486C25.4069 25.4528 25.4736 25.557 25.4736 25.6611C25.4736 25.7523 25.4411 25.8288 25.376 25.8906C25.3141 25.9525 25.2376 25.9834 25.1465 25.9834C25.0716 25.9834 24.9788 25.9395 24.8682 25.8516L23.7646 24.958C23.6344 24.8538 23.5693 24.7497 23.5693 24.6455C23.5693 24.5544 23.6003 24.4779 23.6621 24.416C23.7272 24.3542 23.8053 24.3232 23.8965 24.3232C23.9714 24.3232 24.0641 24.3672 24.1748 24.4551Z" fill="#232323"/>
<path d="M37.0361 25.6416V31.5986C37.0361 31.9404 37.028 32.1439 37.0117 32.209C36.9857 32.3066 36.9271 32.3896 36.8359 32.458C36.748 32.5264 36.6488 32.5605 36.5381 32.5605C36.4242 32.5605 36.3216 32.5264 36.2305 32.458C36.1426 32.3896 36.0856 32.3034 36.0596 32.1992C36.0433 32.1406 36.0352 31.9404 36.0352 31.5986V25.6416C36.0352 25.2998 36.0433 25.0964 36.0596 25.0312C36.0856 24.9336 36.1426 24.8506 36.2305 24.7822C36.3216 24.7139 36.4242 24.6797 36.5381 24.6797C36.6488 24.6797 36.748 24.7139 36.8359 24.7822C36.9271 24.8506 36.9857 24.9352 37.0117 25.0361C37.028 25.1012 37.0361 25.3031 37.0361 25.6416Z" fill="#232323"/>
<path d="M47.8906 24.8848H49.1797L48.8623 27.4629C48.846 27.5996 48.8102 27.694 48.7549 27.7461C48.7028 27.7949 48.6328 27.8193 48.5449 27.8193C48.4635 27.8193 48.3952 27.7949 48.3398 27.7461C48.2878 27.694 48.2536 27.6012 48.2373 27.4678L47.8906 24.8848Z" fill="#232323"/>
<path d="M57.3193 34.001H51.8213C51.5804 34.001 51.4095 33.9554 51.3086 33.8643C51.2044 33.7731 51.1523 33.6527 51.1523 33.5029C51.1523 33.3532 51.2044 33.2311 51.3086 33.1367C51.4095 33.0456 51.5804 33 51.8213 33H57.3193C57.557 33 57.7262 33.0456 57.8271 33.1367C57.9313 33.2311 57.9834 33.3532 57.9834 33.5029C57.9834 33.6494 57.9329 33.7682 57.832 33.8594C57.7311 33.9538 57.5602 34.001 57.3193 34.001Z" fill="#232323"/>
<path d="M65.415 24.377L68.6279 31.2617C68.6442 31.2975 68.6719 31.3805 68.7109 31.5107C68.7305 31.5856 68.7402 31.6426 68.7402 31.6816C68.7402 31.7988 68.693 31.9014 68.5986 31.9893C68.5075 32.0771 68.3936 32.1211 68.2568 32.1211C68.1299 32.1211 68.029 32.0918 67.9541 32.0332C67.8792 31.9746 67.8011 31.8607 67.7197 31.6914L64.5117 24.8018C64.4303 24.6292 64.3896 24.5007 64.3896 24.416C64.3896 24.2923 64.4385 24.1816 64.5361 24.084C64.637 23.9863 64.7542 23.9375 64.8877 23.9375C65.0081 23.9375 65.1058 23.9668 65.1807 24.0254C65.2555 24.084 65.3337 24.2012 65.415 24.377Z" fill="#232323"/>
<path d="M1.00098 36.6416V42.5986C1.00098 42.9404 0.992839 43.1439 0.976562 43.209C0.950521 43.3066 0.891927 43.3896 0.800781 43.458C0.712891 43.5264 0.613607 43.5605 0.50293 43.5605C0.388997 43.5605 0.286458 43.5264 0.195312 43.458C0.107422 43.3896 0.0504557 43.3034 0.0244141 43.1992C0.00813802 43.1406 0 42.9404 0 42.5986V36.6416C0 36.2998 0.00813802 36.0964 0.0244141 36.0312C0.0504557 35.9336 0.107422 35.8506 0.195312 35.7822C0.286458 35.7139 0.388997 35.6797 0.50293 35.6797C0.613607 35.6797 0.712891 35.7139 0.800781 35.7822C0.891927 35.8506 0.950521 35.9352 0.976562 36.0361C0.992839 36.1012 1.00098 36.3031 1.00098 36.6416Z" fill="#232323"/>
<path d="M12.1484 39.5664C12.1484 38.9967 12.2428 38.4206 12.4316 37.8379C12.5716 37.4082 12.7881 36.9297 13.0811 36.4023C13.2926 36.0247 13.4489 35.7936 13.5498 35.709C13.6507 35.6211 13.763 35.5771 13.8867 35.5771C14.0299 35.5771 14.1504 35.626 14.248 35.7236C14.3457 35.8213 14.3945 35.9385 14.3945 36.0752C14.3945 36.1696 14.3555 36.2819 14.2773 36.4121C13.9258 36.9883 13.6686 37.5286 13.5059 38.0332C13.3464 38.5378 13.2666 39.0488 13.2666 39.5664C13.2666 40.0872 13.3464 40.5999 13.5059 41.1045C13.6686 41.609 13.9258 42.1494 14.2773 42.7256C14.3555 42.8525 14.3945 42.9648 14.3945 43.0625C14.3945 43.1992 14.3457 43.3164 14.248 43.4141C14.1504 43.5117 14.0299 43.5605 13.8867 43.5605C13.7663 43.5605 13.6605 43.5215 13.5693 43.4434C13.4391 43.3294 13.2666 43.0739 13.0518 42.6768C12.7425 42.1006 12.5309 41.6253 12.417 41.251C12.238 40.6781 12.1484 40.1165 12.1484 39.5664Z" fill="#232323"/>
<path d="M21.2842 45.001H15.7861C15.5452 45.001 15.3743 44.9554 15.2734 44.8643C15.1693 44.7731 15.1172 44.6527 15.1172 44.5029C15.1172 44.3532 15.1693 44.2311 15.2734 44.1367C15.3743 44.0456 15.5452 44 15.7861 44H21.2842C21.5218 44 21.6911 44.0456 21.792 44.1367C21.8962 44.2311 21.9482 44.3532 21.9482 44.5029C21.9482 44.6494 21.8978 44.7682 21.7969 44.8594C21.696 44.9538 21.5251 45.001 21.2842 45.001Z" fill="#232323"/>
<path d="M25.0244 36.6416V42.5986C25.0244 42.9404 25.0163 43.1439 25 43.209C24.974 43.3066 24.9154 43.3896 24.8242 43.458C24.7363 43.5264 24.637 43.5605 24.5264 43.5605C24.4124 43.5605 24.3099 43.5264 24.2188 43.458C24.1309 43.3896 24.0739 43.3034 24.0479 43.1992C24.0316 43.1406 24.0234 42.9404 24.0234 42.5986V36.6416C24.0234 36.2998 24.0316 36.0964 24.0479 36.0312C24.0739 35.9336 24.1309 35.8506 24.2188 35.7822C24.3099 35.7139 24.4124 35.6797 24.5264 35.6797C24.637 35.6797 24.7363 35.7139 24.8242 35.7822C24.9154 35.8506 24.974 35.9352 25 36.0361C25.0163 36.1012 25.0244 36.3031 25.0244 36.6416Z" fill="#232323"/>
<path d="M37.0361 36.6416V42.5986C37.0361 42.9404 37.028 43.1439 37.0117 43.209C36.9857 43.3066 36.9271 43.3896 36.8359 43.458C36.748 43.5264 36.6488 43.5605 36.5381 43.5605C36.4242 43.5605 36.3216 43.5264 36.2305 43.458C36.1426 43.3896 36.0856 43.3034 36.0596 43.1992C36.0433 43.1406 36.0352 42.9404 36.0352 42.5986V36.6416C36.0352 36.2998 36.0433 36.0964 36.0596 36.0312C36.0856 35.9336 36.1426 35.8506 36.2305 35.7822C36.3216 35.7139 36.4242 35.6797 36.5381 35.6797C36.6488 35.6797 36.748 35.7139 36.8359 35.7822C36.9271 35.8506 36.9857 35.9352 37.0117 36.0361C37.028 36.1012 37.0361 36.3031 37.0361 36.6416Z" fill="#232323"/>
<path d="M49.0479 36.6416V42.5986C49.0479 42.9404 49.0397 43.1439 49.0234 43.209C48.9974 43.3066 48.9388 43.3896 48.8477 43.458C48.7598 43.5264 48.6605 43.5605 48.5498 43.5605C48.4359 43.5605 48.3333 43.5264 48.2422 43.458C48.1543 43.3896 48.0973 43.3034 48.0713 43.1992C48.055 43.1406 48.0469 42.9404 48.0469 42.5986V36.6416C48.0469 36.2998 48.055 36.0964 48.0713 36.0312C48.0973 35.9336 48.1543 35.8506 48.2422 35.7822C48.3333 35.7139 48.4359 35.6797 48.5498 35.6797C48.6605 35.6797 48.7598 35.7139 48.8477 35.7822C48.9388 35.8506 48.9974 35.9352 49.0234 36.0361C49.0397 36.1012 49.0479 36.3031 49.0479 36.6416Z" fill="#232323"/>
<path d="M61.0596 36.6416V42.5986C61.0596 42.9404 61.0514 43.1439 61.0352 43.209C61.0091 43.3066 60.9505 43.3896 60.8594 43.458C60.7715 43.5264 60.6722 43.5605 60.5615 43.5605C60.4476 43.5605 60.3451 43.5264 60.2539 43.458C60.166 43.3896 60.109 43.3034 60.083 43.1992C60.0667 43.1406 60.0586 42.9404 60.0586 42.5986V36.6416C60.0586 36.2998 60.0667 36.0964 60.083 36.0312C60.109 35.9336 60.166 35.8506 60.2539 35.7822C60.3451 35.7139 60.4476 35.6797 60.5615 35.6797C60.6722 35.6797 60.7715 35.7139 60.8594 35.7822C60.9505 35.8506 61.0091 35.9352 61.0352 36.0361C61.0514 36.1012 61.0596 36.3031 61.0596 36.6416Z" fill="#232323"/>
<path d="M73.0713 36.6416V42.5986C73.0713 42.9404 73.0632 43.1439 73.0469 43.209C73.0208 43.3066 72.9622 43.3896 72.8711 43.458C72.7832 43.5264 72.6839 43.5605 72.5732 43.5605C72.4593 43.5605 72.3568 43.5264 72.2656 43.458C72.1777 43.3896 72.1208 43.3034 72.0947 43.1992C72.0785 43.1406 72.0703 42.9404 72.0703 42.5986V36.6416C72.0703 36.2998 72.0785 36.0964 72.0947 36.0312C72.1208 35.9336 72.1777 35.8506 72.2656 35.7822C72.3568 35.7139 72.4593 35.6797 72.5732 35.6797C72.6839 35.6797 72.7832 35.7139 72.8711 35.7822C72.9622 35.8506 73.0208 35.9352 73.0469 36.0361C73.0632 36.1012 73.0713 36.3031 73.0713 36.6416Z" fill="#232323"/>
<path d="M81.3428 45.001H75.8447C75.6038 45.001 75.4329 44.9554 75.332 44.8643C75.2279 44.7731 75.1758 44.6527 75.1758 44.5029C75.1758 44.3532 75.2279 44.2311 75.332 44.1367C75.4329 44.0456 75.6038 44 75.8447 44H81.3428C81.5804 44 81.7497 44.0456 81.8506 44.1367C81.9548 44.2311 82.0068 44.3532 82.0068 44.5029C82.0068 44.6494 81.9564 44.7682 81.8555 44.8594C81.7546 44.9538 81.5837 45.001 81.3428 45.001Z" fill="#232323"/>
<path d="M5.35645 46.377L8.56934 53.2617C8.58561 53.2975 8.61328 53.3805 8.65234 53.5107C8.67188 53.5856 8.68164 53.6426 8.68164 53.6816C8.68164 53.7988 8.63444 53.9014 8.54004 53.9893C8.44889 54.0771 8.33496 54.1211 8.19824 54.1211C8.07129 54.1211 7.97038 54.0918 7.89551 54.0332C7.82064 53.9746 7.74251 53.8607 7.66113 53.6914L4.45312 46.8018C4.37174 46.6292 4.33105 46.5007 4.33105 46.416C4.33105 46.2923 4.37988 46.1816 4.47754 46.084C4.57845 45.9863 4.69564 45.9375 4.8291 45.9375C4.94954 45.9375 5.0472 45.9668 5.12207 46.0254C5.19694 46.084 5.27507 46.2012 5.35645 46.377Z" fill="#232323"/>
<path d="M15.2783 56.001H9.78027C9.53939 56.001 9.36849 55.9554 9.26758 55.8643C9.16341 55.7731 9.11133 55.6527 9.11133 55.5029C9.11133 55.3532 9.16341 55.2311 9.26758 55.1367C9.36849 55.0456 9.53939 55 9.78027 55H15.2783C15.516 55 15.6852 55.0456 15.7861 55.1367C15.8903 55.2311 15.9424 55.3532 15.9424 55.5029C15.9424 55.6494 15.8919 55.7682 15.791 55.8594C15.6901 55.9538 15.5192 56.001 15.2783 56.001Z" fill="#232323"/>
<path d="M21.2842 56.001H15.7861C15.5452 56.001 15.3743 55.9554 15.2734 55.8643C15.1693 55.7731 15.1172 55.6527 15.1172 55.5029C15.1172 55.3532 15.1693 55.2311 15.2734 55.1367C15.3743 55.0456 15.5452 55 15.7861 55H21.2842C21.5218 55 21.6911 55.0456 21.792 55.1367C21.8962 55.2311 21.9482 55.3532 21.9482 55.5029C21.9482 55.6494 21.8978 55.7682 21.7969 55.8594C21.696 55.9538 21.5251 56.001 21.2842 56.001Z" fill="#232323"/>
<path d="M24.2822 51.6504H25.6201L24.1797 54.3652C24.0951 54.5247 23.9893 54.6045 23.8623 54.6045C23.7777 54.6045 23.7044 54.5768 23.6426 54.5215C23.584 54.4661 23.5547 54.4043 23.5547 54.3359C23.5547 54.2871 23.5661 54.2204 23.5889 54.1357L24.2822 51.6504Z" fill="#232323"/>
<path d="M33.2959 56.001H27.7979C27.557 56.001 27.3861 55.9554 27.2852 55.8643C27.181 55.7731 27.1289 55.6527 27.1289 55.5029C27.1289 55.3532 27.181 55.2311 27.2852 55.1367C27.3861 55.0456 27.557 55 27.7979 55H33.2959C33.5335 55 33.7028 55.0456 33.8037 55.1367C33.9079 55.2311 33.96 55.3532 33.96 55.5029C33.96 55.6494 33.9095 55.7682 33.8086 55.8594C33.7077 55.9538 33.5368 56.001 33.2959 56.001Z" fill="#232323"/>
<path d="M37.0361 47.6416V53.5986C37.0361 53.9404 37.028 54.1439 37.0117 54.209C36.9857 54.3066 36.9271 54.3896 36.8359 54.458C36.748 54.5264 36.6488 54.5605 36.5381 54.5605C36.4242 54.5605 36.3216 54.5264 36.2305 54.458C36.1426 54.3896 36.0856 54.3034 36.0596 54.1992C36.0433 54.1406 36.0352 53.9404 36.0352 53.5986V47.6416C36.0352 47.2998 36.0433 47.0964 36.0596 47.0312C36.0856 46.9336 36.1426 46.8506 36.2305 46.7822C36.3216 46.7139 36.4242 46.6797 36.5381 46.6797C36.6488 46.6797 36.748 46.7139 36.8359 46.7822C36.9271 46.8506 36.9857 46.9352 37.0117 47.0361C37.028 47.1012 37.0361 47.3031 37.0361 47.6416Z" fill="#232323"/>
<path d="M45.3076 56.001H39.8096C39.5687 56.001 39.3978 55.9554 39.2969 55.8643C39.1927 55.7731 39.1406 55.6527 39.1406 55.5029C39.1406 55.3532 39.1927 55.2311 39.2969 55.1367C39.3978 55.0456 39.5687 55 39.8096 55H45.3076C45.5452 55 45.7145 55.0456 45.8154 55.1367C45.9196 55.2311 45.9717 55.3532 45.9717 55.5029C45.9717 55.6494 45.9212 55.7682 45.8203 55.8594C45.7194 55.9538 45.5485 56.001 45.3076 56.001Z" fill="#232323"/>
<path d="M49.0479 47.6416V53.5986C49.0479 53.9404 49.0397 54.1439 49.0234 54.209C48.9974 54.3066 48.9388 54.3896 48.8477 54.458C48.7598 54.5264 48.6605 54.5605 48.5498 54.5605C48.4359 54.5605 48.3333 54.5264 48.2422 54.458C48.1543 54.3896 48.0973 54.3034 48.0713 54.1992C48.055 54.1406 48.0469 53.9404 48.0469 53.5986V47.6416C48.0469 47.2998 48.055 47.0964 48.0713 47.0312C48.0973 46.9336 48.1543 46.8506 48.2422 46.7822C48.3333 46.7139 48.4359 46.6797 48.5498 46.6797C48.6605 46.6797 48.7598 46.7139 48.8477 46.7822C48.9388 46.8506 48.9974 46.9352 49.0234 47.0361C49.0397 47.1012 49.0479 47.3031 49.0479 47.6416Z" fill="#232323"/>
<path d="M61.0596 47.6416V53.5986C61.0596 53.9404 61.0514 54.1439 61.0352 54.209C61.0091 54.3066 60.9505 54.3896 60.8594 54.458C60.7715 54.5264 60.6722 54.5605 60.5615 54.5605C60.4476 54.5605 60.3451 54.5264 60.2539 54.458C60.166 54.3896 60.109 54.3034 60.083 54.1992C60.0667 54.1406 60.0586 53.9404 60.0586 53.5986V47.6416C60.0586 47.2998 60.0667 47.0964 60.083 47.0312C60.109 46.9336 60.166 46.8506 60.2539 46.7822C60.3451 46.7139 60.4476 46.6797 60.5615 46.6797C60.6722 46.6797 60.7715 46.7139 60.8594 46.7822C60.9505 46.8506 61.0091 46.9352 61.0352 47.0361C61.0514 47.1012 61.0596 47.3031 61.0596 47.6416Z" fill="#232323"/>
<path d="M69.3311 56.001H63.833C63.5921 56.001 63.4212 55.9554 63.3203 55.8643C63.2161 55.7731 63.1641 55.6527 63.1641 55.5029C63.1641 55.3532 63.2161 55.2311 63.3203 55.1367C63.4212 55.0456 63.5921 55 63.833 55H69.3311C69.5687 55 69.738 55.0456 69.8389 55.1367C69.943 55.2311 69.9951 55.3532 69.9951 55.5029C69.9951 55.6494 69.9447 55.7682 69.8438 55.8594C69.7428 55.9538 69.5719 56.001 69.3311 56.001Z" fill="#232323"/>
<path d="M72.207 50.5664C72.207 49.9967 72.3014 49.4206 72.4902 48.8379C72.6302 48.4082 72.8467 47.9297 73.1396 47.4023C73.3512 47.0247 73.5075 46.7936 73.6084 46.709C73.7093 46.6211 73.8216 46.5771 73.9453 46.5771C74.0885 46.5771 74.209 46.626 74.3066 46.7236C74.4043 46.8213 74.4531 46.9385 74.4531 47.0752C74.4531 47.1696 74.4141 47.2819 74.3359 47.4121C73.9844 47.9883 73.7272 48.5286 73.5645 49.0332C73.4049 49.5378 73.3252 50.0488 73.3252 50.5664C73.3252 51.0872 73.4049 51.5999 73.5645 52.1045C73.7272 52.609 73.9844 53.1494 74.3359 53.7256C74.4141 53.8525 74.4531 53.9648 74.4531 54.0625C74.4531 54.1992 74.4043 54.3164 74.3066 54.4141C74.209 54.5117 74.0885 54.5605 73.9453 54.5605C73.8249 54.5605 73.7191 54.5215 73.6279 54.4434C73.4977 54.3294 73.3252 54.0739 73.1104 53.6768C72.8011 53.1006 72.5895 52.6253 72.4756 52.251C72.2965 51.6781 72.207 51.1165 72.207 50.5664Z" fill="#232323"/>
<path d="M81.3428 56.001H75.8447C75.6038 56.001 75.4329 55.9554 75.332 55.8643C75.2279 55.7731 75.1758 55.6527 75.1758 55.5029C75.1758 55.3532 75.2279 55.2311 75.332 55.1367C75.4329 55.0456 75.6038 55 75.8447 55H81.3428C81.5804 55 81.7497 55.0456 81.8506 55.1367C81.9548 55.2311 82.0068 55.3532 82.0068 55.5029C82.0068 55.6494 81.9564 55.7682 81.8555 55.8594C81.7546 55.9538 81.5837 56.001 81.3428 56.001Z" fill="#232323"/>
<path d="M85.0049 50.5664C85.0049 51.1361 84.9105 51.7139 84.7217 52.2998C84.5817 52.7295 84.3652 53.2064 84.0723 53.7305C83.8607 54.1081 83.7044 54.3408 83.6035 54.4287C83.5026 54.5166 83.3903 54.5605 83.2666 54.5605C83.1234 54.5605 83.0029 54.5117 82.9053 54.4141C82.8076 54.3164 82.7588 54.1992 82.7588 54.0625C82.7588 53.9648 82.7979 53.8525 82.876 53.7256C83.2275 53.1494 83.4831 52.609 83.6426 52.1045C83.8053 51.5999 83.8867 51.0872 83.8867 50.5664C83.8867 50.0488 83.8053 49.5378 83.6426 49.0332C83.4831 48.5286 83.2275 47.9883 82.876 47.4121C82.7979 47.2819 82.7588 47.1696 82.7588 47.0752C82.7588 46.9385 82.8076 46.8213 82.9053 46.7236C83.0029 46.626 83.1234 46.5771 83.2666 46.5771C83.387 46.5771 83.4928 46.6162 83.584 46.6943C83.7142 46.805 83.8867 47.0605 84.1016 47.4609C84.4108 48.0371 84.6224 48.5107 84.7363 48.8818C84.9154 49.458 85.0049 50.0195 85.0049 50.5664Z" fill="#232323"/>
</svg>
